<?xml version="1.0"?>
<svg xmlns="http://www.w3.org/2000/svg" id="Capa_1" enable-background="new 0 0 512.004 512.004" height="512px" viewBox="0 0 512.004 512.004" width="512px" class=""><g><g><path d="m467.002 210.004c-11.139 0-409.275 0-422 0-24.813 0-45 20.187-45 45 0 36.219 25.808 66.522 60 73.491v108.509c0 41.355 33.645 75 75 75h242c41.355 0 75-33.645 75-75v-108.51c34.192-6.968 60-37.271 60-73.491 0-24.812-20.187-44.999-45-44.999zm-437 45c0-8.271 6.729-15 15-15h15v57.42c-17.459-6.193-30-22.866-30-42.42zm392 182c0 24.813-20.187 45-45 45h-242c-24.813 0-45-20.187-45-45v-197h332zm30-139.581v-57.42h15c8.271 0 15 6.729 15 15 0 19.555-12.542 36.228-30 42.42z" data-original="#000000" class="active-path" data-old_color="#000000" fill="#689943"/><path d="m62.368 171.258c3.448 7.518 12.346 10.839 19.888 7.38l327.013-150c7.53-3.454 10.834-12.358 7.38-19.888-3.455-7.53-12.358-10.834-19.888-7.38l-108.886 49.945-.137-.297c-13.834-30.052-49.54-43.247-79.592-29.412-30.053 13.835-43.247 49.54-29.412 79.592l.068.149-109.054 50.023c-7.53 3.454-10.834 12.358-7.38 19.888zm143.617-82.605c-6.917-15.026-.32-32.879 14.706-39.796s32.878-.32 39.796 14.706l.12.26-54.537 25.016z" data-original="#000000" class="active-path" data-old_color="#000000" fill="#689943"/><path d="m415.855 80.151c0-8.284-6.716-15-15-15-2.807 0-27.848.421-42.426 15-14.58 14.579-15 39.619-15 42.427 0 5.23-1.822 16.823-6.213 21.213-4.154 4.155-15.149 6.164-21.213 6.213-8.284 0-15 6.716-15 15s6.716 15 15 15c2.807 0 27.848-.421 42.426-15 14.579-14.579 15-39.619 15-42.368.049-6.123 2.059-17.117 6.214-21.272 4.152-4.153 15.14-6.162 21.265-6.213 8.259-.028 14.947-6.733 14.947-15z" data-original="#000000" class="active-path" data-old_color="#000000" fill="#689943"/><path d="m406.002 180.004c2.807 0 27.848-.421 42.426-15 14.579-14.579 15-39.619 15-42.368.049-6.123 2.059-17.117 6.214-21.272 4.152-4.153 15.14-6.162 21.265-6.213 8.26-.028 14.948-6.733 14.948-15 0-8.284-6.716-15-15-15-2.807 0-27.848.421-42.426 15-14.58 14.579-15 39.619-15 42.427 0 5.23-1.822 16.823-6.213 21.213-4.154 4.155-15.149 6.164-21.213 6.213-8.284 0-15 6.716-15 15s6.715 15 14.999 15z" data-original="#000000" class="active-path" data-old_color="#000000" fill="#689943"/></g></g> </svg>
