<?xml version="1.0"?>
<svg xmlns="http://www.w3.org/2000/svg" id="Layer_1" enable-background="new 0 0 481.99 481.99" height="512px" viewBox="0 0 481.99 481.99" width="512px" class=""><g transform="matrix(6.12323e-17 -1 1 6.12323e-17 0 481.99)"><g><path d="m408.565 21.223-141.14 156.57c-7.13 7.9-6.81 20 .71 27.53l8.54 8.54c7.53 7.52 19.63 7.84 27.53.71l156.57-141.14c8.12-7.32 12.22-17.39 12.22-27.47 0-33.517-41.67-49.988-64.43-24.74zm30.79 34.14-10 10c-3.498 3.518-9.22 3.521-12.72 0-3.52-3.51-3.52-9.21 0-12.72l10-10c3.51-3.52 9.21-3.52 12.72 0 3.52 3.51 3.52 9.21 0 12.72z" fill="#fe4f60" data-original="#FE4F60" class="active-path" style="fill:#689943" data-old_color="#fe4f60"/></g><path d="m470.106 31.628c3.523 8.372-6.116 16.424-13.721 11.456-14.446-9.436-34.863-8.236-47.82 6.138l-127.448 141.382c-8.088 8.972-22.698-2.827-13.693-12.812l141.14-156.57c18.214-20.203 51.112-14.38 61.542 10.406z" fill="#ff6d7a" data-original="#FF6D7A" class="" style="fill:#689943" data-old_color="#ff6d7a"/><path d="m434.836.018c-12.727.329-24.43 5.718-32.953 15.174-153.442 170.212-144.79 158.783-147.438 167.84l-160.331 45.173c-93.628 26.499-125.318 142.991-58.636 213.355.05.058 2.665 2.823 2.401 2.559 69.465 69.497 188.948 39.04 215.915-56.238l33.238-117.607c1.352-4.782-1.431-9.756-6.214-11.108-4.777-1.349-9.756 1.429-11.108 6.214l-33.237 117.603c-18.954 66.969-95.308 101.066-158.035 68.688 75.129-.756 129.961-55.891 158.985-124.466 1.938-4.577-.203-9.858-4.78-11.796-4.576-1.936-9.858.202-11.796 4.78-29.384 69.423-84.332 120.465-159.01 112.701l192.522-192.521c3.515-3.515 3.515-9.214 0-12.729-3.516-3.514-9.214-3.514-12.728 0l-192.523 192.521c-8.26-79.453 50.673-136.383 124.722-163.77 4.662-1.725 7.043-6.901 5.319-11.563s-6.899-7.045-11.563-5.319c-74.307 27.483-136.456 84.321-137.26 164.049-32.33-62.638 1.614-139.046 68.68-158.028l156.179-44.002c2.705 7.092 6.246 9.819 15.126 18.7 10.923 10.921 28.457 11.37 39.924 1.033l156.57-141.145c31.435-28.336 10.766-81.249-31.969-80.098zm19.916 66.727-156.57 141.145c-4.349 3.922-11.003 3.75-15.143-.393l-8.539-8.539c-4.142-4.142-4.314-10.793-.393-15.143l141.145-156.57c10.741-11.915 29.216-12.385 40.55-1.05 11.323 11.321 10.878 29.799-1.05 40.55zm-15.393-24.106c3.515 3.515 3.515 9.214 0 12.729-10.084 10.084-11.481 12.636-16.364 12.636-7.947 0-12.051-9.678-6.364-15.364l10-10c3.515-3.515 9.212-3.515 12.728-.001z" data-original="#000000" class="" style="fill:#353531" data-old_color="#000000"/></g> </svg>
