<svg data-v-423bf9ae="" xmlns="http://www.w3.org/2000/svg" viewBox="0 0 457 90" class="iconLeft"><!----><!----><!----><g data-v-423bf9ae="" id="c3358b36-4af8-42a2-9edf-e5ea88529919" fill="#FFFFFF" transform="matrix(4.658385051777184,0,0,4.658385051777184,105.34629366711357,13.043477664066593)"><path d="M2.17 10.50L2.17 6.57C2.17 5.15 2.77 4.20 3.98 4.20C4.41 4.20 4.66 4.31 4.94 4.51L5.32 3.40C4.98 3.14 4.59 3.01 4.03 3.01C3.12 3.01 2.51 3.50 2.04 4.48L2.04 3.22L0.91 3.22L0.91 10.50ZM12.36 7.18C12.38 7.08 12.38 6.76 12.38 6.72C12.38 4.61 11.27 3.01 9.07 3.01C7.06 3.01 5.74 4.45 5.74 6.86C5.74 9.27 7.06 10.71 9.07 10.71C10.65 10.71 11.86 9.91 12.28 8.29L11.09 8.04C10.84 9.13 10.00 9.66 9.14 9.66C8.09 9.66 7.11 8.93 7 7.18ZM9.07 4.06C10.25 4.06 10.98 4.94 11.03 6.17L7.04 6.17C7.27 4.69 8.20 4.06 9.07 4.06ZM14.62 6.86C14.62 4.87 15.58 4.06 16.69 4.06C17.54 4.06 18.23 4.55 18.49 5.71L19.71 5.43C19.32 3.91 18.26 3.01 16.69 3.01C14.67 3.01 13.36 4.45 13.36 6.86C13.36 9.27 14.67 10.71 16.69 10.71C18.26 10.71 19.32 9.83 19.71 8.30L18.49 8.02C18.23 9.17 17.54 9.66 16.69 9.66C15.58 9.66 14.62 8.85 14.62 6.86ZM22.37 1.83L22.37 0.42L21.11 0.42L21.11 1.83ZM22.37 10.50L22.37 3.22L21.11 3.22L21.11 10.50ZM25.45 13.30L25.45 9.73C25.87 10.32 26.50 10.71 27.37 10.71C29.39 10.71 30.49 9.13 30.49 6.86C30.49 4.59 29.39 3.01 27.37 3.01C26.40 3.01 25.73 3.51 25.31 4.21L25.31 3.22L24.19 3.22L24.19 13.30ZM25.30 6.86C25.30 5.01 26.33 4.06 27.30 4.06C28.41 4.06 29.23 5.01 29.23 6.86C29.23 8.71 28.41 9.66 27.30 9.66C26.19 9.66 25.30 8.71 25.30 6.86ZM38.09 7.18C38.11 7.08 38.11 6.76 38.11 6.72C38.11 4.61 37.00 3.01 34.80 3.01C32.79 3.01 31.47 4.45 31.47 6.86C31.47 9.27 32.79 10.71 34.80 10.71C36.39 10.71 37.59 9.91 38.01 8.29L36.82 8.04C36.57 9.13 35.73 9.66 34.87 9.66C33.82 9.66 32.84 8.93 32.73 7.18ZM34.80 4.06C35.98 4.06 36.71 4.94 36.76 6.17L32.77 6.17C33.00 4.69 33.94 4.06 34.80 4.06ZM42.98 8.40C43.09 9.87 44.18 10.71 45.96 10.71C47.42 10.71 48.90 10.11 48.90 8.50C48.90 7.14 48.02 6.65 47.11 6.40L45.15 5.87C44.72 5.75 44.25 5.52 44.25 5.03C44.25 4.44 44.79 4.06 45.84 4.06C46.77 4.06 47.31 4.48 47.42 5.28L48.62 5.11C48.51 3.86 47.60 3.01 45.86 3.01C44.37 3.01 43.05 3.64 43.05 5.17C43.05 6.37 43.90 6.82 44.87 7.08L46.65 7.56C47.39 7.76 47.64 8.05 47.64 8.61C47.64 9.42 46.72 9.66 46.00 9.66C44.80 9.66 44.31 8.99 44.20 8.22L42.98 8.40ZM53.20 9.44C52.98 9.51 52.77 9.52 52.63 9.52C51.97 9.52 51.97 9.07 51.97 8.44L51.97 4.19L53.21 4.19L53.21 3.22L51.97 3.22L51.97 0.70L50.71 1.30L50.71 3.22L49.67 3.22L49.67 4.19L50.71 4.19L50.71 8.37C50.71 9.80 50.89 10.64 52.42 10.64C52.68 10.64 53.06 10.58 53.34 10.50ZM59.32 9.60C59.36 9.95 59.40 10.30 59.61 10.50L60.89 10.50C60.63 10.23 60.49 9.76 60.49 9.02L60.49 5.82C60.49 3.99 59.63 3.01 57.68 3.01C56.28 3.01 54.98 3.53 54.61 5.21L55.80 5.47C56.06 4.52 56.64 4.02 57.55 4.02C58.52 4.02 59.23 4.44 59.23 5.57L59.23 5.85C58.87 6.02 58.02 6.16 57.25 6.23C55.62 6.38 54.39 7.01 54.39 8.58C54.39 10.07 55.52 10.71 56.87 10.71C57.74 10.71 58.59 10.42 59.32 9.60ZM59.23 8.54C58.86 9.03 58.00 9.70 57.06 9.70C56.39 9.70 55.71 9.45 55.71 8.53C55.71 7.53 56.62 7.36 57.39 7.24C58.10 7.13 58.91 6.97 59.23 6.82ZM62.01 8.40C62.12 9.87 63.21 10.71 64.99 10.71C66.44 10.71 67.93 10.11 67.93 8.50C67.93 7.14 67.05 6.65 66.14 6.40L64.18 5.87C63.74 5.75 63.28 5.52 63.28 5.03C63.28 4.44 63.81 4.06 64.86 4.06C65.80 4.06 66.33 4.48 66.44 5.28L67.65 5.11C67.54 3.86 66.63 3.01 64.89 3.01C63.39 3.01 62.08 3.64 62.08 5.17C62.08 6.37 62.93 6.82 63.90 7.08L65.67 7.56C66.42 7.76 66.67 8.05 66.67 8.61C66.67 9.42 65.74 9.66 65.03 9.66C63.83 9.66 63.34 8.99 63.22 8.22L62.01 8.40ZM70.59 10.50L70.59 6.54C70.59 4.94 71.37 4.07 72.52 4.07C73.61 4.07 74.02 4.83 74.02 6.09L74.02 10.50L75.28 10.50L75.28 6.03C75.28 4.30 74.79 3.01 72.77 3.01C71.76 3.01 70.99 3.42 70.59 4.21L70.59 0.42L69.33 0.42L69.33 10.50Z"></path></g><!----><g data-v-423bf9ae="" id="b93e36b6-aa38-4d51-9145-a9e313c332d4" transform="matrix(2.363316710719948,0,0,2.363316710719948,-80.93419204321691,-78.37380479202183)" stroke="none" fill="#FC8729"><path d="M44.614 46.07a14.66 14.66 0 0 1 1.272-1.454l-.707-.707-.707-.707c-4.268 4.268-5.91 10.543-4.286 16.377l1.927-.536a14.824 14.824 0 0 1 2.501-12.973z"></path><path d="M72.172 40.629l.262-.262-.707-.707a21.632 21.632 0 0 0-15.397-6.378c-4.77 0-9.292 1.545-13.038 4.361a4.18 4.18 0 0 0-4.185-3.895 4.191 4.191 0 0 0-2.982 1.235 4.19 4.19 0 0 0-1.236 2.982 4.187 4.187 0 0 0 3.93 4.19c-6.28 8.516-5.592 20.594 2.113 28.299l.707.707.127-.127c.448.211.965.33 1.565.33 3.816 0 10.96-4.581 17.777-11.397 3.969-3.969 7.275-8.143 9.31-11.754 1.915-3.399 2.499-5.983 1.754-7.584zm-34.634-1.094a2.204 2.204 0 0 1-.65-1.568c0-.592.231-1.149.65-1.568.419-.418.976-.649 1.568-.649s1.149.231 1.568.649a2.221 2.221 0 0 1 0 3.137c-.838.837-2.299.837-3.136-.001zm2.798 27.147c-5.623-7.729-4.958-18.64 2.009-25.607a19.646 19.646 0 0 1 13.984-5.792c4.279 0 8.348 1.355 11.725 3.854-4.001.803-10.393 5.115-16.528 11.25-3.969 3.969-7.275 8.143-9.31 11.754-.978 1.736-1.592 3.249-1.88 4.541zm28.338-19.449c-1.947 3.457-5.137 7.477-8.981 11.321-7.098 7.098-13.604 10.812-16.363 10.812-.438 0-.751-.091-.931-.271-.575-.575-.315-2.645 1.56-5.974 1.947-3.457 5.137-7.477 8.981-11.321 7.098-7.098 13.604-10.812 16.363-10.812.438 0 .751.091.931.271.575.575.316 2.645-1.56 5.974z"></path></g><!----></svg>